<svg width="864" height="129" viewBox="0 0 864 129" fill="none" xmlns="http://www.w3.org/2000/svg">
<path d="M278.753 28.4973C292.249 28.0105 300.034 30.5007 308.31 41.7567C308.024 38.4093 308.166 33.7123 308.181 30.2558L322.503 30.2081L322.553 128.733L308.324 128.702L308.216 109.053L308.295 90.476C307.932 91.0699 307.561 91.6639 307.183 92.2517C303.127 98.5952 297.822 102.728 290.172 104.253C253.331 111.588 233.477 70.6496 253.121 42.5276C259.285 33.7037 268.325 30.036 278.753 28.4973Z" fill="#FEFEFE"/>
<path d="M279.578 41.2985C314.687 38.4849 317.948 84.9221 288.908 92.5269C283.113 92.9923 278.801 93.1148 273.522 90.5614C256.328 82.2341 255.616 53.4986 272.104 44.0985C274.589 42.6817 276.881 42.0504 279.578 41.2985Z" fill="black"/>
<path d="M749.023 28.5262C750.198 28.4612 751.374 28.4092 752.55 28.37C774.097 27.6775 785.167 37.5264 784.971 59.3031C784.836 73.8514 784.892 88.7304 784.855 103.297L771.341 103.279L771.194 91.7307C762.157 104.093 749.464 107.749 734.652 103.53C727.99 101.638 724.114 97.0272 721.181 90.9776C711.972 58.8316 749.935 59.5725 770.245 59.5725C770.3 54.6006 770.655 51.0676 767.741 46.6186C762.518 38.6402 749.745 37.6513 742.294 42.8755C738.412 45.5948 737.505 48.2418 736.654 52.7881L721.892 52.684C724.139 36.3496 733.795 30.4978 749.023 28.5262Z" fill="#FEFEFE"/>
<path d="M754.368 70.2087C759.524 69.7311 765.414 69.8719 770.643 69.8719C770.166 84.0651 766.039 91.1924 751.503 93.7824C746.268 93.8375 742.085 93.764 737.677 90.3902C733.029 86.8266 733.287 80.6424 736.942 76.4848C741.534 71.2557 747.939 70.8516 754.368 70.2087Z" fill="black"/>
<path d="M540.643 28.5574C542.137 28.4509 543.625 28.386 545.125 28.3633C565.698 28.1643 576.346 38.0377 576.248 58.7275C576.175 73.5514 576.236 88.5896 576.23 103.432L562.619 103.193L562.606 91.1613C552.02 109.175 522.072 110.828 512.618 91.1368C511.859 88.6814 511.363 86.073 511.314 83.5013C510.842 57.907 544.127 59.6643 561.535 59.5602C561.578 55.3966 561.896 52.084 559.943 48.1022C555.675 39.3848 543.337 37.5515 535.31 41.8089C530.491 44.3671 529.058 47.6068 527.57 52.7514C522.727 52.733 517.884 52.6657 513.046 52.5493C516.561 35.883 524.16 30.466 540.643 28.5574Z" fill="#FEFEFE"/>
<path d="M545.511 70.2084C550.857 69.7001 556.331 69.8409 561.707 69.8654C561.309 84.5179 557.145 90.7328 542.597 93.8188C532.855 93.8678 519.917 89.5388 528.177 76.711C531.441 71.635 539.792 70.7901 545.511 70.2084Z" fill="black"/>
<path d="M201.762 28.5328C216.452 27.0878 234.312 32.2317 236.308 48.4903C238.396 65.4934 237.301 86.0423 237.324 103.322L223.89 103.15L223.772 91.5041C212.034 109.181 183.029 111.098 173.476 90.6774C172.904 88.3017 172.586 85.8708 172.529 83.4277C171.95 58.0355 205.224 59.5601 222.868 59.5785C223.012 43.2055 213.564 35.6484 196.389 41.8272C191.851 43.4596 190.015 48.3053 188.712 52.7084C183.79 52.7023 178.869 52.6594 173.948 52.5798C178.099 35.4635 184.72 30.9343 201.762 28.5328Z" fill="#FEFEFE"/>
<path d="M206.707 70.215C212.023 69.6946 217.549 69.8109 222.904 69.8109C222.884 83.9 218.04 90.8068 204.275 93.8193C198.84 93.85 194.696 93.9234 190.119 90.3843C185.589 86.8819 185.714 80.8691 189.204 76.7116C193.781 71.256 200.164 70.8825 206.707 70.215Z" fill="black"/>
<path d="M97.1857 0.712344L111.778 0.693359L111.888 41.2818C126.303 21.9397 158.394 24.4214 162.629 48.6717C165.227 63.5409 163.716 87.4086 163.577 103.224L149.218 103.273L149.225 67.8271C149.407 55.8994 148.598 40.5501 132.585 40.5201C127.176 40.503 121.985 42.6503 118.169 46.4845C108.71 56.0585 111.863 88.7678 111.755 103.23L97.1863 103.2C96.6775 69.3946 97.0914 34.5832 97.1857 0.712344Z" fill="#FEFEFE"/>
<path d="M436.264 0.612305L450.659 0.678453L450.683 41.6539C464.111 21.7974 497.206 24.205 501.725 47.9361C504.542 62.7263 503.042 87.2491 502.968 103.157L488.297 103.261L488.389 68.8188C488.389 61.4344 489.063 51.1354 483.717 45.4055C476.7 37.8913 463.64 39.9094 456.886 46.7219C454.535 49.0566 452.82 51.9559 451.902 55.1399C449.838 62.4263 450.634 93.7579 450.573 103.328L436.307 103.157L436.264 0.612305Z" fill="#FEFEFE"/>
<path d="M833.19 28.5071C855.319 27.5617 863.719 40.6283 863.762 61.067C863.793 75.101 863.744 89.2514 863.701 103.298L849.134 103.169C849.067 90.5495 851.4 58.5749 846.171 48.854C844.169 45.1336 840.844 42.0108 836.668 40.9718C831.065 39.5757 824.893 41.6049 820.038 44.3548C809.108 54.5521 811.092 67.4472 811.165 81.2118L811.172 103.243L796.984 103.224L796.997 30.2852L811.092 30.2081L811.129 42.5956C811.631 41.8333 812.145 41.0801 812.678 40.3374C818.372 32.4185 823.944 29.9956 833.19 28.5071Z" fill="#FEFEFE"/>
<path d="M678.012 28.5178C696.057 26.7421 708.566 32.3833 712.473 51.0561C709.252 51.0806 699.063 52.1215 697.925 49.6301C693.651 40.2349 689.928 39.6581 679.8 39.9642C674.112 40.1369 667.248 43.4605 668.154 50.701C669.079 58.067 680.67 59.114 686.285 60.4611C698.121 62.7695 712.804 66.0025 713.753 80.6794C714.359 89.9926 709.785 97.1627 701.653 101.516C696.859 104.088 690.724 104.663 685.293 104.988C667.567 105.355 654.347 100.292 651.328 80.9305L665.387 80.8815C667.897 92.9745 675.692 94.2909 686.817 93.6848C693.902 93.3051 700.686 89.319 698.849 81.2611C697.245 74.2441 686.536 73.5461 680.804 72.1868C670.163 70.0559 656.276 67.3189 654.035 54.5218C653.165 49.5021 654.426 42.2898 657.531 38.1169C662.411 31.5646 670.395 29.6494 678.012 28.5178Z" fill="#FEFEFE"/>
<path d="M610.702 28.5195C628.802 27.26 640.663 32.1205 645.083 51.0615L631.3 51.1595C630.137 48.1531 629.617 46.5041 627.265 44.0874C620.897 37.5516 599.705 37.4439 600.826 50.0647C601.591 58.7031 613.935 59.4685 620.603 60.8584C631.888 63.1607 645.194 66.6202 645.837 80.5807C646.663 98.411 632.605 104.056 617.517 104.957C599.448 105.348 587.086 100.401 583.822 80.9726L598.15 80.8256C600.777 93.831 609.459 94.3699 620.971 93.5739C626.61 93.1881 633.658 87.3345 631.441 81.6339C626.745 69.596 603.434 73.8821 594.103 66.0446C590.484 63.5831 586.786 59.9338 586.345 55.1334C584.692 37.2645 595.383 30.6509 610.702 28.5195Z" fill="#FEFEFE"/>
<path d="M52.8157 28.5253C70.45 27.1647 82.6655 32.6877 86.4061 51.1903L73.083 51.3067C72.0604 48.8568 70.7317 45.753 68.8421 43.872C64.6932 38.7195 48.2736 38.4036 44.4957 43.8219C35.7263 56.5235 54.7389 59.7871 63.7422 61.2321C83.2429 64.3671 96.3254 77.6725 82.5522 96.6172C78.1884 102.618 67.086 104.522 59.581 104.981C46.9222 105.294 33.454 102.716 27.822 89.5818C26.8674 87.353 25.532 83.6179 26.4602 81.2667C28.9462 80.636 36.7641 80.8381 39.7718 80.8442C41.5921 91.8902 48.1646 93.6475 58.616 93.8985C63.847 95.4171 76.2547 88.5838 73.4589 82.2158C66.5736 66.5224 31.8498 77.0173 28.0614 54.7049C27.0603 48.8066 28.4343 42.5826 32.0377 38.0478C37.347 31.3651 44.8759 29.6243 52.8157 28.5253Z" fill="#FEFEFE"/>
<path d="M1.75905 30.2676L15.872 30.311C16.2731 54.6073 16.2903 78.9097 15.9235 103.206L1.7168 103.194L1.75905 30.2676Z" fill="#FEFEFE"/>
<path d="M374.69 28.3105C376.188 29.4641 379.947 34.8671 381.242 36.6324L347.745 63.5952C354.576 72.1002 361.29 80.6907 367.886 89.3793C364.646 92.098 361.347 95.1412 358.175 97.9761L331.057 63.7299C344.571 52.3104 360.705 39.1312 374.69 28.3105Z" fill="#FEFEFE"/>
<path d="M403.309 30.0273C405.617 31.8306 427.385 59.8362 430.624 63.9202C416.241 75.4928 401.474 87.6654 386.841 98.84L386.034 99.0298C383.812 96.9112 381.887 93.7578 380.125 91.1678C391.36 81.922 402.911 72.9334 414.03 63.5957C407.295 55.3786 400.611 46.7328 393.907 38.4202C397.724 35.3887 399.839 33.463 403.309 30.0273Z" fill="#FEFEFE"/>
<path d="M6.86843 0.259108C10.0402 -0.517907 13.3833 0.481369 15.6085 2.87119C17.833 5.26102 18.591 8.66727 17.5893 11.7753C16.5882 14.8828 13.9834 17.2059 10.7823 17.8469C5.97569 18.8089 1.28175 15.7529 0.216956 10.9683C-0.847841 6.18376 2.10776 1.42555 6.86843 0.259108Z" fill="#FEFEFE"/>
</svg>
