<svg xmlns="http://www.w3.org/2000/svg" width="1200" height="675" viewBox="0 0 1200 675" preserveAspectRatio="xMidYMid slice">
<defs>
  <linearGradient id="bg" x1="0" y1="0" x2="1200" y2="675" gradientUnits="userSpaceOnUse">
    <stop offset="0" stop-color="#1c0d02"/>
    <stop offset="0.5" stop-color="#7c2d12"/>
    <stop offset="1" stop-color="#a16207"/>
  </linearGradient>
  <radialGradient id="glow" cx="900" cy="200" r="380" gradientUnits="userSpaceOnUse">
    <stop offset="0" stop-color="#fbbf24" stop-opacity="0.55"/>
    <stop offset="1" stop-color="#fbbf24" stop-opacity="0"/>
  </radialGradient>
</defs>
<rect width="1200" height="675" fill="url(#bg)"/>
<rect width="1200" height="675" fill="url(#glow)"/>
<g transform="translate(820 337)" font-family="SF Mono, Menlo, monospace">
  <rect x="-160" y="-180" width="320" height="360" rx="14" fill="#0b1120" stroke="#fbbf24" stroke-width="2.5" opacity="0.95"/>
  <rect x="-160" y="-180" width="320" height="42" rx="14" fill="#fbbf24"/>
  <rect x="-160" y="-160" width="320" height="22" fill="#fbbf24"/>
  <text x="-140" y="-152" fill="#0b1120" font-size="13" font-weight="900" letter-spacing="1">assets.dart</text>
  <text x="120" y="-152" text-anchor="end" fill="#0b1120" font-size="11" font-weight="700">⚙</text>
  <text x="-140" y="-100" fill="#fbbf24" font-size="13" font-weight="600">class A {</text>
  <text x="-120" y="-72" fill="#7dd3fc" font-size="12" font-weight="600">static const logo</text>
  <text x="60" y="-72" fill="rgba(255,255,255,0.55)" font-size="12">= …;</text>
  <text x="-120" y="-44" fill="#7dd3fc" font-size="12" font-weight="600">static const hero</text>
  <text x="60" y="-44" fill="rgba(255,255,255,0.55)" font-size="12">= …;</text>
  <text x="-120" y="-16" fill="#7dd3fc" font-size="12" font-weight="600">static const icon</text>
  <text x="60" y="-16" fill="rgba(255,255,255,0.55)" font-size="12">= …;</text>
  <text x="-120" y="12" fill="#7dd3fc" font-size="12" font-weight="600">static const splash</text>
  <text x="80" y="12" fill="rgba(255,255,255,0.55)" font-size="12">= …;</text>
  <text x="-120" y="40" fill="#7dd3fc" font-size="12" font-weight="600">static const banner</text>
  <text x="80" y="40" fill="rgba(255,255,255,0.55)" font-size="12">= …;</text>
  <text x="-120" y="68" fill="rgba(255,255,255,0.4)" font-size="11">// auto-generated</text>
  <text x="-140" y="100" fill="#fbbf24" font-size="13" font-weight="600">}</text>
  <g opacity="0.85">
    <rect x="-140" y="120" width="60" height="50" rx="6" fill="rgba(125,211,252,0.15)" stroke="#7dd3fc" stroke-width="1"/>
    <rect x="-72" y="120" width="60" height="50" rx="6" fill="rgba(125,211,252,0.15)" stroke="#7dd3fc" stroke-width="1"/>
    <rect x="-4" y="120" width="60" height="50" rx="6" fill="rgba(125,211,252,0.15)" stroke="#7dd3fc" stroke-width="1"/>
    <rect x="64" y="120" width="60" height="50" rx="6" fill="rgba(125,211,252,0.15)" stroke="#7dd3fc" stroke-width="1"/>
    <text x="-110" y="150" fill="#7dd3fc" font-size="20">★</text>
    <text x="-42" y="150" fill="#7dd3fc" font-size="20">▲</text>
    <text x="26" y="150" fill="#7dd3fc" font-size="20">●</text>
    <text x="94" y="150" fill="#7dd3fc" font-size="20">▮</text>
  </g>
</g>
<g transform="translate(280 337)" font-family="SF Pro Display, system-ui, sans-serif">
  <rect x="-110" y="-150" width="220" height="300" rx="14" fill="rgba(0,0,0,0.4)" stroke="rgba(255,255,255,0.25)" stroke-width="2" stroke-dasharray="6 6"/>
  <text x="0" y="-100" text-anchor="middle" fill="rgba(255,255,255,0.55)" font-size="12" font-weight="700" letter-spacing="2">/assets/</text>
  <g font-size="22">
    <text x="-60" y="-50" fill="#fbbf24">📁</text>
    <text x="-20" y="-50" fill="#fbbf24">📁</text>
    <text x="20" y="-50" fill="#fbbf24">📁</text>
    <text x="60" y="-50" fill="#fbbf24">📁</text>
    <text x="-60" y="-10" fill="#fbbf24">📁</text>
    <text x="-20" y="-10" fill="#fbbf24">📁</text>
    <text x="20" y="-10" fill="#fbbf24">📁</text>
    <text x="60" y="-10" fill="#fbbf24">📁</text>
    <text x="-60" y="30" fill="#fbbf24">📁</text>
    <text x="-20" y="30" fill="#fbbf24">📁</text>
    <text x="20" y="30" fill="#fbbf24">📁</text>
    <text x="60" y="30" fill="#fbbf24">📁</text>
  </g>
  <text x="0" y="100" text-anchor="middle" fill="rgba(255,255,255,0.55)" font-size="12" font-weight="700" letter-spacing="2">→ scan → emit</text>
</g>
<g stroke-linecap="round" fill="none">
  <path d="M 410 337 L 660 337" stroke="#fbbf24" stroke-width="3" stroke-dasharray="4 8"/>
  <polygon points="660,331 676,337 660,343" fill="#fbbf24"/>
</g>
<g font-family="SF Pro Display, system-ui, sans-serif">
  <text x="60" y="60" fill="#fbbf24" font-size="14" font-weight="700" letter-spacing="3">DART · CODEGEN · TOOLING</text>
  <text x="60" y="640" fill="rgba(255,255,255,0.55)" font-size="13" font-weight="600" letter-spacing="2">R.java pattern · type-safe assets · build-time scan</text>
</g>
</svg>
