<svg xmlns="http://www.w3.org/2000/svg" viewBox="0 0 1200 675" preserveAspectRatio="xMidYMid slice">
<defs>
  <linearGradient id="bg" x1="0" y1="0" x2="1200" y2="675" gradientUnits="userSpaceOnUse">
    <stop offset="0" stop-color="#0b0c2e"/>
    <stop offset="0.5" stop-color="#1e1b4b"/>
    <stop offset="1" stop-color="#0a0a23"/>
  </linearGradient>
  <radialGradient id="glow" cx="600" cy="337" r="500" gradientUnits="userSpaceOnUse">
    <stop offset="0" stop-color="#6366f1" stop-opacity="0.35"/>
    <stop offset="0.6" stop-color="#a855f7" stop-opacity="0.2"/>
    <stop offset="1" stop-color="#a855f7" stop-opacity="0"/>
  </radialGradient>
</defs>
<rect width="1200" height="675" fill="url(#bg)"/>
<rect width="1200" height="675" fill="url(#glow)"/>
<g transform="translate(600 337)" stroke-linecap="round">
  <g opacity="0.45" fill="none" stroke="#a78bfa" stroke-width="1.5">
    <line x1="-260" y1="-160" x2="-80" y2="-40"/>
    <line x1="-260" y1="-160" x2="-80" y2="60"/>
    <line x1="-260" y1="0" x2="-80" y2="-40"/>
    <line x1="-260" y1="0" x2="-80" y2="60"/>
    <line x1="-260" y1="0" x2="-80" y2="160"/>
    <line x1="-260" y1="160" x2="-80" y2="60"/>
    <line x1="-260" y1="160" x2="-80" y2="160"/>
    <line x1="-80" y1="-40" x2="80" y2="-40"/>
    <line x1="-80" y1="-40" x2="80" y2="60"/>
    <line x1="-80" y1="60" x2="80" y2="-40"/>
    <line x1="-80" y1="60" x2="80" y2="60"/>
    <line x1="-80" y1="60" x2="80" y2="160"/>
    <line x1="-80" y1="160" x2="80" y2="60"/>
    <line x1="-80" y1="160" x2="80" y2="160"/>
    <line x1="80" y1="-40" x2="260" y2="-100"/>
    <line x1="80" y1="-40" x2="260" y2="20"/>
    <line x1="80" y1="60" x2="260" y2="20"/>
    <line x1="80" y1="60" x2="260" y2="100"/>
    <line x1="80" y1="160" x2="260" y2="100"/>
  </g>
  <g fill="#a78bfa">
    <circle cx="-260" cy="-160" r="9"/>
    <circle cx="-260" cy="0" r="9"/>
    <circle cx="-260" cy="160" r="9"/>
  </g>
  <g fill="#7dd3fc">
    <circle cx="-80" cy="-40" r="11"/>
    <circle cx="-80" cy="60" r="13"/>
    <circle cx="-80" cy="160" r="11"/>
  </g>
  <g fill="#7dd3fc">
    <circle cx="80" cy="-40" r="11"/>
    <circle cx="80" cy="60" r="13"/>
    <circle cx="80" cy="160" r="11"/>
  </g>
  <g fill="#22c55e">
    <circle cx="260" cy="-100" r="10"/>
    <circle cx="260" cy="20" r="12"/>
    <circle cx="260" cy="100" r="10"/>
  </g>
</g>
<g transform="translate(600 337)" font-family="SF Pro Display, system-ui, sans-serif">
  <circle r="60" fill="#0b1120" stroke="#7dd3fc" stroke-width="3"/>
  <text y="14" text-anchor="middle" fill="#7dd3fc" font-size="38" font-weight="900" letter-spacing="-2">AI</text>
</g>
<g font-family="SF Pro Display, system-ui, sans-serif">
  <text x="60" y="60" fill="#a78bfa" font-size="14" font-weight="700" letter-spacing="3">DEVnCODE · MEETUP IV</text>
  <text x="60" y="640" fill="rgba(255,255,255,0.55)" font-size="13" font-weight="600" letter-spacing="2">LLM ops · Prompt engineering · Vector search</text>
</g>
</svg>
