<svg xmlns="http://www.w3.org/2000/svg" viewBox="0 0 1200 675" preserveAspectRatio="xMidYMid slice">
<defs>
  <linearGradient id="bg" x1="0" y1="0" x2="1200" y2="675" gradientUnits="userSpaceOnUse">
    <stop offset="0" stop-color="#1c0a02"/>
    <stop offset="0.5" stop-color="#7c2d12"/>
    <stop offset="1" stop-color="#854d0e"/>
  </linearGradient>
  <radialGradient id="glow" cx="900" cy="220" r="380" gradientUnits="userSpaceOnUse">
    <stop offset="0" stop-color="#fbbf24" stop-opacity="0.5"/>
    <stop offset="1" stop-color="#fbbf24" stop-opacity="0"/>
  </radialGradient>
  <linearGradient id="piece" x1="0" y1="0" x2="1" y2="1">
    <stop offset="0" stop-color="#22c55e"/>
    <stop offset="1" stop-color="#0ea5e9"/>
  </linearGradient>
</defs>
<rect width="1200" height="675" fill="url(#bg)"/>
<rect width="1200" height="675" fill="url(#glow)"/>
<g transform="translate(880 337) scale(2.4)">
  <path d="M -90 -90 L -10 -90 a 14 14 0 0 1 0 28 a 14 14 0 0 0 0 28 L 90 -34 L 90 -10 a 14 14 0 0 1 -28 0 a 14 14 0 0 0 -28 0 L 34 90 L -34 90 a 14 14 0 0 1 0 -28 a 14 14 0 0 0 0 -28 L -90 34 Z"
        fill="url(#piece)" stroke="#fff" stroke-width="2.4" opacity="0.95"/>
  <circle cx="-30" cy="-30" r="6" fill="#fff" opacity="0.45"/>
  <circle cx="20" cy="20" r="4" fill="#fff" opacity="0.35"/>
</g>
<g font-family="SF Pro Display, system-ui, sans-serif">
  <text x="60" y="60" fill="#fbbf24" font-size="14" font-weight="700" letter-spacing="3">FLUTTER · PLUGIN DEVELOPMENT</text>
  <text x="60" y="180" fill="#fff" font-size="80" font-weight="900" letter-spacing="-3">156</text>
  <text x="60" y="225" fill="#fbbf24" font-size="22" font-weight="800" letter-spacing="2">LIKES on pub.dev</text>
  <text x="60" y="270" fill="rgba(255,255,255,0.65)" font-size="14" font-weight="600">document_scanner_flutter · 470 monthly downloads</text>
  <g transform="translate(60 330)">
    <rect x="0" y="0" width="80" height="34" rx="6" fill="rgba(255,255,255,0.08)" stroke="rgba(255,255,255,0.18)"/>
    <text x="40" y="22" text-anchor="middle" fill="#fff" font-size="13" font-weight="700"></text>
  </g>
  <g transform="translate(150 330)">
    <rect x="0" y="0" width="120" height="34" rx="6" fill="rgba(255,255,255,0.08)" stroke="rgba(255,255,255,0.18)"/>
    <text x="60" y="22" text-anchor="middle" fill="#fff" font-size="13" font-weight="700">Android</text>
  </g>
  <text x="60" y="640" fill="rgba(255,255,255,0.55)" font-size="13" font-weight="600" letter-spacing="2">Federated · MethodChannel · Native Bridges</text>
</g>
</svg>
